<mxfile host="app.diagrams.net" modified="2024-05-17T11:05:10.157Z" agent="Mozilla/5.0 (Windows NT 10.0; Win64; x64) AppleWebKit/537.36 (KHTML, like Gecko) Chrome/123.0.0.0 Safari/537.36" version="24.4.4" etag="Y_3imFAjaXSUNYJC_-Ob" type="github">
  <diagram name="Page-1" id="SKwyv71SeFpSVGvbEau5">
    <mxGraphModel>
      <root>
        <mxCell id="0" />
        <mxCell id="1" parent="0" />
      </root>
    </mxGraphModel>
  </diagram>
</mxfile>
